#!OML:ASF F:\VICON\USERDATA\INSTALL\rory3\rory3.ASF
:FULLY-SPECIFIED
:DEGREES
196
root 0.324934 17.6219 10.0611 -2.32958 -0.533268 -3.12932
lowerback 6.699 -1.12097 1.35189
upperback 0.147106 -1.24765 3.87343
thorax -3.5499 -0.612681 3.37461
lowerneck -16.331 -2.44175 -9.72695
upperneck 24.7896 -1.99477 4.70376
head 10.8496 -1.26269 3.06438
rclavicle 2.53575e-014 -2.62396e-014
rhumerus -35.5737 -15.1327 -75.3024
rradius 24.75
rwrist 9.29045
rhand -17.7105 19.8861
rfingers 7.12502
rthumb 8.54973 -9.92085
lclavicle 2.53575e-014 -2.62396e-014
lhumerus -31.6147 5.72742 83.9939
lradius 31.4065
lwrist -11.8061
lhand -12.1633 24.1897
lfingers 7.12502
lthumb 13.8997 53.7052
rfemur -6.10353 4.94347 27.9764
rtibia 20.3209
rfoot -7.24669 -0.948265
rtoes 10.4526
lfemur -15.5984 2.21036 -15.1542
ltibia 68.9208
lfoot 2.92986 -8.60907
ltoes -9.93654
197
root 0.318282 17.615 10.2418 -2.35253 -0.838796 -3.43267
lowerback 6.57255 -0.979071 1.65532
upperback 0.292166 -1.04589 3.88888
thorax -3.34341 -0.518409 3.194
lowerneck -16.3595 -2.49615 -9.76305
upperneck 24.7297 -2.08625 4.81064
head 10.8417 -1.29318 3.09558
rclavicle -3.96327e-015 -7.15625e-015
rhumerus -34.8535 -14.5375 -75.7416
rradius 25.3883
rwrist 9.04127
rhand -17.3063 18.0186
rfingers 7.12502
rthumb 8.93982 -11.772
lclavicle -3.96327e-015 -7.15625e-015
lhumerus -31.6752 5.39058 84.3298
lradius 30.957
lwrist -11.3612
lhand -13.161 23.3596
lfingers 7.12502
lthumb 12.938 52.9385
rfemur -5.32441 5.00478 28.4068
rtibia 20.2268
rfoot -7.9301 -0.857224
rtoes 11.2468
lfemur -17.0316 2.75267 -14.7296
ltibia 69.2263
lfoot 2.05552 -8.50865
ltoes -6.07415
198
root 0.312613 17.6022 10.4179 -2.32215 -1.09976 -3.54698
lowerback 6.5895 -0.831401 1.84417
upperback 0.260736 -0.835621 3.8035
thorax -3.3984 -0.417003 2.97984
lowerneck -16.0824 -2.48504 -9.98881
upperneck 24.6536 -2.15638 5.25567
head 10.771 -1.29405 3.28589
rclavicle 3.35449e-016 5.56597e-015
rhumerus -34.4058 -14.0115 -76.0812
rradius 25.8959
rwrist 8.97781
rhand -16.6804 16.1862
rfingers 7.12502
rthumb 9.54372 -13.5777
lclavicle 3.35449e-016 5.56597e-015
lhumerus -32.2967 5.06395 84.4848
lradius 31.1935
lwrist -11.6549
lhand -12.8126 23.509
lfingers 7.12502
lthumb 13.2738 53.0663
rfemur -4.65995 5.05063 28.6132
rtibia 20.2514
rfoot -8.62381 -0.760766
rtoes 11.2747
lfemur -18.3674 3.2335 -14.6258
ltibia 69.3469
lfoot 0.823371 -8.24073
ltoes -4.84016
199
root 0.308761 17.5814 10.5841 -2.25575 -1.3263 -3.5439
lowerback 6.80662 -0.665959 1.93487
upperback 0.175518 -0.599507 3.67322
thorax -3.61978 -0.301509 2.77611
lowerneck -15.8365 -2.50479 -9.93554
upperneck 24.4352 -2.24597 5.34883
head 10.6497 -1.31722 3.29376
rclavicle 2.42269e-015 2.8625e-014
rhumerus -33.8429 -13.5773 -76.4311
rradius 26.245
rwrist 8.60579
rhand -16.4072 15.6792
rfingers 7.12502
rthumb 9.80728 -14.0724
lclavicle 2.42269e-015 2.8625e-014
lhumerus -32.8321 4.77607 84.6395
lradius 31.4839
lwrist -12.1125
lhand -11.9247 24.5892
lfingers 7.12502
lthumb 14.1296 54.0888
rfemur -4.16355 5.05021 28.6785
rtibia 20.3968
rfoot -9.24188 -0.671317
rtoes 11.0026
lfemur -19.6833 3.70544 -14.7019
ltibia 69.2944
lfoot -0.359977 -7.74342
ltoes -5.70767
200
root 0.302933 17.5634 10.7513 -2.20963 -1.53407 -3.85119
lowerback 7.02132 -0.56592 2.23153
upperback 0.115022 -0.428249 3.72017
thorax -3.81107 -0.221145 2.64566
lowerneck -15.655 -2.56485 -9.87108
upperneck 24.2763 -2.31519 5.16461
head 10.5604 -1.36382 3.20261
rclavicle -2.67117e-015 2.22639e-014
rhumerus -33.2138 -12.5743 -76.9171
rradius 26.7808
rwrist 7.64162
rhand -16.6609 15.7299
rfingers 7.12502
rthumb 9.56258 -14.0331
lclavicle -2.67117e-015 2.22639e-014
lhumerus -33.1697 4.91073 84.8245
lradius 31.4303
lwrist -12.7871
lhand -10.6352 26.1644
lfingers 7.12502
lthumb 15.3719 55.5729
rfemur -3.72014 5.08677 29.0962
rtibia 20.6751
rfoot -9.99164 -0.649714
rtoes 11.4441
lfemur -20.9781 4.1782 -14.4088
ltibia 69.0752
lfoot -1.61794 -7.20392
ltoes -6.19737
201
root 0.303216 17.5478 10.9351 -2.1853 -1.5609 -3.96302
lowerback 6.93606 -0.536321 2.38566
upperback 0.110898 -0.380679 3.70968
thorax -3.76999 -0.200347 2.54183
lowerneck -15.4357 -2.58839 -9.81984
upperneck 24.1739 -2.35446 5.05467
head 10.4825 -1.39059 3.14668
rclavicle -1.89591e-014 -9.54166e-015
rhumerus -32.6725 -11.4635 -77.3344
rradius 27.4566
rwrist 6.82526
rhand -16.6841 15.4188
rfingers 7.12502
rthumb 9.54014 -14.3453
lclavicle -1.89591e-014 -9.54166e-015
lhumerus -33.4452 5.02212 84.9795
lradius 31.1023
lwrist -13.5415
lhand -9.99168 26.7602
lfingers 7.12502
lthumb 15.9917 56.1202
rfemur -3.2042 4.83719 29.2356
rtibia 21.0075
rfoot -10.8729 -0.563854
rtoes 10.921
lfemur -22.0542 4.53357 -14.3997
ltibia 68.6502
lfoot -3.19769 -6.65012
ltoes -7.22165
202
root 0.306034 17.5279 11.1218 -2.21583 -1.55589 -3.95171
lowerback 6.78758 -0.481704 2.49471
upperback 0.283178 -0.318029 3.61478
thorax -3.5104 -0.171261 2.37074
lowerneck -15.6283 -2.62037 -9.7974
upperneck 24.0069 -2.41067 5.1678
head 10.4637 -1.3954 3.17281
rclavicle -8.92046e-015 7.31528e-014
rhumerus -31.8814 -10.85 -77.671
rradius 27.9905
rwrist 6.27951
rhand -16.3846 14.6878
rfingers 7.12502
rthumb 9.82909 -15.0627
lclavicle -8.92046e-015 7.31528e-014
lhumerus -33.3784 4.92593 85.1821
lradius 30.661
lwrist -13.7344
lhand -10.1809 26.2563
lfingers 7.12502
lthumb 15.8095 55.6308
rfemur -2.60756 4.37834 29.2187
rtibia 21.3221
rfoot -11.7449 -0.398886
rtoes 9.41679
lfemur -23.011 4.7232 -14.5735
ltibia 68.0757
lfoot -4.34079 -5.95882
ltoes -8.33943
203
root 0.303749 17.5045 11.2891 -2.16084 -1.68946 -4.25935
lowerback 6.98906 -0.380562 2.85171
upperback 0.319285 -0.146255 3.61962
thorax -3.59105 -0.0919195 2.16033
lowerneck -16.0124 -2.6864 -9.75686
upperneck 24.0598 -2.48391 5.20249
head 10.5633 -1.41739 3.16901
rclavicle -4.39811e-015 1.98785e-014
rhumerus -31.2071 -10.4709 -77.8825
rradius 28.5041
rwrist 5.92387
rhand -16.08 14.3527
rfingers 7.12502
rthumb 10.123 -15.3838
lclavicle -4.39811e-015 1.98785e-014
lhumerus -33.5215 4.71614 85.4473
lradius 30.4482
lwrist -13.5713
lhand -10.7322 25.3394
lfingers 7.12502
lthumb 15.2785 54.7551
rfemur -2.1874 4.40918 29.6377
rtibia 21.6377
rfoot -12.3615 -0.585988
rtoes 9.09231
lfemur -24.2172 5.01463 -14.361
ltibia 67.4289
lfoot -5.14785 -5.2477
ltoes -8.99543
204
root 0.30508 17.4845 11.4485 -2.03622 -1.81997 -4.31772
lowerback 7.19249 -0.292127 2.95443
upperback 0.339674 -0.0113404 3.5852
thorax -3.68635 -0.027331 2.05503
lowerneck -16.3704 -2.73364 -9.86602
upperneck 24.1452 -2.51766 5.33173
head 10.6701 -1.42457 3.23121
rclavicle -6.85807e-015 1.66979e-014
rhumerus -30.582 -9.82908 -78.128
rradius 29.1953
rwrist 5.37306
rhand -16.131 14.47
rfingers 7.12502
rthumb 10.0738 -15.2689
lclavicle -6.85807e-015 1.66979e-014
lhumerus -33.8112 4.64382 85.7005
lradius 30.4763
lwrist -13.7763
lhand -11.4427 24.3758
lfingers 7.12502
lthumb 14.594 53.8423
rfemur -1.84947 4.36347 29.7322
rtibia 21.8669
rfoot -12.9103 -0.663065
rtoes 8.4354
lfemur -25.4883 5.2771 -14.4635
ltibia 66.6316
lfoot -6.0122 -4.40803
ltoes -9.03678
205
root 0.305074 17.4652 11.6075 -1.88405 -1.98959 -4.44524
lowerback 7.27434 -0.202403 3.09371
upperback 0.345642 0.123386 3.57344
thorax -3.72775 0.0368494 1.9513
lowerneck -16.3341 -2.76113 -9.89339
upperneck 23.9953 -2.55652 5.36123
head 10.6122 -1.43895 3.23809
rclavicle 2.83268e-015 -2.46493e-014
rhumerus -29.9089 -9.23817 -78.3503
rradius 29.7231
rwrist 4.97371
rhand -16.1321 14.6878
rfingers 7.12502
rthumb 10.0727 -15.0511
lclavicle 2.83268e-015 -2.46493e-014
lhumerus -34.1949 4.59834 85.9225
lradius 30.5254
lwrist -14.0089
lhand -11.7717 24.045
lfingers 7.12502
lthumb 14.277 53.5342
rfemur -1.49222 4.47928 29.926
rtibia 22.0531
rfoot -13.4869 -0.842671
rtoes 7.56361
lfemur -26.6659 5.58182 -14.4741
ltibia 65.7067
lfoot -6.80212 -3.43692
ltoes -9.01515
206
root 0.299501 17.4394 11.7743 -1.81896 -2.30411 -4.94822
lowerback 7.46209 -0.042077 3.59315
upperback 0.285773 0.395368 3.63588
thorax -3.89613 0.161977 1.70907
lowerneck -16.152 -2.84748 -9.83178
upperneck 23.9006 -2.69572 5.2965
head 10.5531 -1.50518 3.18289
rclavicle -7.35503e-015 3.89618e-014
rhumerus -29.2338 -8.7819 -78.5118
rradius 29.8982
rwrist 4.47707
rhand -16.0109 14.9499
rfingers 7.12502
rthumb 10.1897 -14.7834
lclavicle -7.35503e-015 3.89618e-014
lhumerus -34.5485 4.60169 86.028
lradius 30.2617
lwrist -14.8075
lhand -11.239 24.1418
lfingers 7.12502
lthumb 14.7902 53.594
rfemur -0.950302 4.8133 30.6041
rtibia 22.1475
rfoot -13.9734 -1.17502
rtoes 7.08002
lfemur -27.6479 6.10303 -14.0025
ltibia 64.6608
lfoot -7.518 -2.54074
ltoes -9.08797
207
root 0.295768 17.4111 11.9485 -1.79957 -2.61054 -5.21033
lowerback 7.67464 0.130264 3.84843
upperback 0.274973 0.661663 3.65279
thorax -4.02537 0.288038 1.55522
lowerneck -16.0671 -2.8983 -9.78579
upperneck 23.8085 -2.77544 5.25457
head 10.5088 -1.54172 3.14712
rclavicle 8.74653e-015 1.11319e-014
rhumerus -28.6027 -8.32458 -78.628
rradius 30.2764
rwrist 4.15925
rhand -15.8856 14.5051
rfingers 7.12502
rthumb 10.3105 -15.2221
lclavicle 8.74653e-015 1.11319e-014
lhumerus -34.7574 4.66952 86.1801
lradius 30.0872
lwrist -15.7347
lhand -10.5586 24.5172
lfingers 7.12502
lthumb 15.4457 53.9201
rfemur -0.286121 5.01694 30.9912
rtibia 22.1085
rfoot -14.3191 -1.40071
rtoes 6.5379
lfemur -28.4471 6.57059 -13.8363
ltibia 63.3687
lfoot -8.21952 -1.67805
ltoes -9.20561
